<?xml version="1.0" encoding="utf-8" standalone="no"?>
<!DOCTYPE svg PUBLIC "-//W3C//DTD SVG 1.1//EN"
  "http://www.w3.org/Graphics/SVG/1.1/DTD/svg11.dtd">
<svg xmlns:xlink="http://www.w3.org/1999/xlink" width="513.7375pt" height="325.755469pt" viewBox="0 0 513.7375 325.755469" xmlns="http://www.w3.org/2000/svg" version="1.1">
 <metadata>
  <rdf:RDF xmlns:dc="http://purl.org/dc/elements/1.1/" xmlns:cc="http://creativecommons.org/ns#" xmlns:rdf="http://www.w3.org/1999/02/22-rdf-syntax-ns#">
   <cc:Work>
    <dc:type rdf:resource="http://purl.org/dc/dcmitype/StillImage"/>
    <dc:date>2025-07-08T11:14:31.691679</dc:date>
    <dc:format>image/svg+xml</dc:format>
    <dc:creator>
     <cc:Agent>
      <dc:title>Matplotlib v3.10.3, https://matplotlib.org/</dc:title>
     </cc:Agent>
    </dc:creator>
   </cc:Work>
  </rdf:RDF>
 </metadata>
 <defs>
  <style type="text/css">*{stroke-linejoin: round; stroke-linecap: butt}</style>
 </defs>
 <g id="figure_1">
  <g id="patch_1">
   <path d="M 0 325.755469 
L 513.7375 325.755469 
L 513.7375 0 
L 0 0 
z
" style="fill: #ffffff"/>
  </g>
  <g id="axes_1">
   <g id="patch_2">
    <path d="M 49.004688 288.199219 
L 495.404687 288.199219 
L 495.404687 10.999219 
L 49.004688 10.999219 
z
" style="fill: #ffffff"/>
   </g>
   <g id="matplotlib.axis_1">
    <g id="xtick_1">
     <g id="line2d_1">
      <path d="M 49.004688 288.199219 
L 49.004688 10.999219 
" clip-path="url(#p993eb658c5)" style="fill: none; stroke: #b0b0b0; stroke-width: 0.8; stroke-linecap: square"/>
     </g>
     <g id="line2d_2">
      <defs>
       <path id="m84472d2867" d="M 0 0 
L 0 3.5 
" style="stroke: #000000; stroke-width: 0.8"/>
      </defs>
      <g>
       <use xlink:href="#m84472d2867" x="49.004688" y="288.199219" style="stroke: #000000; stroke-width: 0.8"/>
      </g>
     </g>
     <g id="text_1">
      <!-- 0.00 -->
      <g transform="translate(37.871875 302.797656) scale(0.1 -0.1)">
       <defs>
        <path id="DejaVuSans-30" d="M 2034 4250 
Q 1547 4250 1301 3770 
Q 1056 3291 1056 2328 
Q 1056 1369 1301 889 
Q 1547 409 2034 409 
Q 2525 409 2770 889 
Q 3016 1369 3016 2328 
Q 3016 3291 2770 3770 
Q 2525 4250 2034 4250 
z
M 2034 4750 
Q 2819 4750 3233 4129 
Q 3647 3509 3647 2328 
Q 3647 1150 3233 529 
Q 2819 -91 2034 -91 
Q 1250 -91 836 529 
Q 422 1150 422 2328 
Q 422 3509 836 4129 
Q 1250 4750 2034 4750 
z
" transform="scale(0.015625)"/>
        <path id="DejaVuSans-2e" d="M 684 794 
L 1344 794 
L 1344 0 
L 684 0 
L 684 794 
z
" transform="scale(0.015625)"/>
       </defs>
       <use xlink:href="#DejaVuSans-30"/>
       <use xlink:href="#DejaVuSans-2e" transform="translate(63.623047 0)"/>
       <use xlink:href="#DejaVuSans-30" transform="translate(95.410156 0)"/>
       <use xlink:href="#DejaVuSans-30" transform="translate(159.033203 0)"/>
      </g>
     </g>
    </g>
    <g id="xtick_2">
     <g id="line2d_3">
      <path d="M 104.804688 288.199219 
L 104.804688 10.999219 
" clip-path="url(#p993eb658c5)" style="fill: none; stroke: #b0b0b0; stroke-width: 0.8; stroke-linecap: square"/>
     </g>
     <g id="line2d_4">
      <g>
       <use xlink:href="#m84472d2867" x="104.804688" y="288.199219" style="stroke: #000000; stroke-width: 0.8"/>
      </g>
     </g>
     <g id="text_2">
      <!-- 0.05 -->
      <g transform="translate(93.671875 302.797656) scale(0.1 -0.1)">
       <defs>
        <path id="DejaVuSans-35" d="M 691 4666 
L 3169 4666 
L 3169 4134 
L 1269 4134 
L 1269 2991 
Q 1406 3038 1543 3061 
Q 1681 3084 1819 3084 
Q 2600 3084 3056 2656 
Q 3513 2228 3513 1497 
Q 3513 744 3044 326 
Q 2575 -91 1722 -91 
Q 1428 -91 1123 -41 
Q 819 9 494 109 
L 494 744 
Q 775 591 1075 516 
Q 1375 441 1709 441 
Q 2250 441 2565 725 
Q 2881 1009 2881 1497 
Q 2881 1984 2565 2268 
Q 2250 2553 1709 2553 
Q 1456 2553 1204 2497 
Q 953 2441 691 2322 
L 691 4666 
z
" transform="scale(0.015625)"/>
       </defs>
       <use xlink:href="#DejaVuSans-30"/>
       <use xlink:href="#DejaVuSans-2e" transform="translate(63.623047 0)"/>
       <use xlink:href="#DejaVuSans-30" transform="translate(95.410156 0)"/>
       <use xlink:href="#DejaVuSans-35" transform="translate(159.033203 0)"/>
      </g>
     </g>
    </g>
    <g id="xtick_3">
     <g id="line2d_5">
      <path d="M 160.604688 288.199219 
L 160.604688 10.999219 
" clip-path="url(#p993eb658c5)" style="fill: none; stroke: #b0b0b0; stroke-width: 0.8; stroke-linecap: square"/>
     </g>
     <g id="line2d_6">
      <g>
       <use xlink:href="#m84472d2867" x="160.604688" y="288.199219" style="stroke: #000000; stroke-width: 0.8"/>
      </g>
     </g>
     <g id="text_3">
      <!-- 0.10 -->
      <g transform="translate(149.471875 302.797656) scale(0.1 -0.1)">
       <defs>
        <path id="DejaVuSans-31" d="M 794 531 
L 1825 531 
L 1825 4091 
L 703 3866 
L 703 4441 
L 1819 4666 
L 2450 4666 
L 2450 531 
L 3481 531 
L 3481 0 
L 794 0 
L 794 531 
z
" transform="scale(0.015625)"/>
       </defs>
       <use xlink:href="#DejaVuSans-30"/>
       <use xlink:href="#DejaVuSans-2e" transform="translate(63.623047 0)"/>
       <use xlink:href="#DejaVuSans-31" transform="translate(95.410156 0)"/>
       <use xlink:href="#DejaVuSans-30" transform="translate(159.033203 0)"/>
      </g>
     </g>
    </g>
    <g id="xtick_4">
     <g id="line2d_7">
      <path d="M 216.404688 288.199219 
L 216.404688 10.999219 
" clip-path="url(#p993eb658c5)" style="fill: none; stroke: #b0b0b0; stroke-width: 0.8; stroke-linecap: square"/>
     </g>
     <g id="line2d_8">
      <g>
       <use xlink:href="#m84472d2867" x="216.404688" y="288.199219" style="stroke: #000000; stroke-width: 0.8"/>
      </g>
     </g>
     <g id="text_4">
      <!-- 0.15 -->
      <g transform="translate(205.271875 302.797656) scale(0.1 -0.1)">
       <use xlink:href="#DejaVuSans-30"/>
       <use xlink:href="#DejaVuSans-2e" transform="translate(63.623047 0)"/>
       <use xlink:href="#DejaVuSans-31" transform="translate(95.410156 0)"/>
       <use xlink:href="#DejaVuSans-35" transform="translate(159.033203 0)"/>
      </g>
     </g>
    </g>
    <g id="xtick_5">
     <g id="line2d_9">
      <path d="M 272.204688 288.199219 
L 272.204688 10.999219 
" clip-path="url(#p993eb658c5)" style="fill: none; stroke: #b0b0b0; stroke-width: 0.8; stroke-linecap: square"/>
     </g>
     <g id="line2d_10">
      <g>
       <use xlink:href="#m84472d2867" x="272.204688" y="288.199219" style="stroke: #000000; stroke-width: 0.8"/>
      </g>
     </g>
     <g id="text_5">
      <!-- 0.20 -->
      <g transform="translate(261.071875 302.797656) scale(0.1 -0.1)">
       <defs>
        <path id="DejaVuSans-32" d="M 1228 531 
L 3431 531 
L 3431 0 
L 469 0 
L 469 531 
Q 828 903 1448 1529 
Q 2069 2156 2228 2338 
Q 2531 2678 2651 2914 
Q 2772 3150 2772 3378 
Q 2772 3750 2511 3984 
Q 2250 4219 1831 4219 
Q 1534 4219 1204 4116 
Q 875 4013 500 3803 
L 500 4441 
Q 881 4594 1212 4672 
Q 1544 4750 1819 4750 
Q 2544 4750 2975 4387 
Q 3406 4025 3406 3419 
Q 3406 3131 3298 2873 
Q 3191 2616 2906 2266 
Q 2828 2175 2409 1742 
Q 1991 1309 1228 531 
z
" transform="scale(0.015625)"/>
       </defs>
       <use xlink:href="#DejaVuSans-30"/>
       <use xlink:href="#DejaVuSans-2e" transform="translate(63.623047 0)"/>
       <use xlink:href="#DejaVuSans-32" transform="translate(95.410156 0)"/>
       <use xlink:href="#DejaVuSans-30" transform="translate(159.033203 0)"/>
      </g>
     </g>
    </g>
    <g id="xtick_6">
     <g id="line2d_11">
      <path d="M 328.004687 288.199219 
L 328.004687 10.999219 
" clip-path="url(#p993eb658c5)" style="fill: none; stroke: #b0b0b0; stroke-width: 0.8; stroke-linecap: square"/>
     </g>
     <g id="line2d_12">
      <g>
       <use xlink:href="#m84472d2867" x="328.004687" y="288.199219" style="stroke: #000000; stroke-width: 0.8"/>
      </g>
     </g>
     <g id="text_6">
      <!-- 0.25 -->
      <g transform="translate(316.871875 302.797656) scale(0.1 -0.1)">
       <use xlink:href="#DejaVuSans-30"/>
       <use xlink:href="#DejaVuSans-2e" transform="translate(63.623047 0)"/>
       <use xlink:href="#DejaVuSans-32" transform="translate(95.410156 0)"/>
       <use xlink:href="#DejaVuSans-35" transform="translate(159.033203 0)"/>
      </g>
     </g>
    </g>
    <g id="xtick_7">
     <g id="line2d_13">
      <path d="M 383.804688 288.199219 
L 383.804688 10.999219 
" clip-path="url(#p993eb658c5)" style="fill: none; stroke: #b0b0b0; stroke-width: 0.8; stroke-linecap: square"/>
     </g>
     <g id="line2d_14">
      <g>
       <use xlink:href="#m84472d2867" x="383.804688" y="288.199219" style="stroke: #000000; stroke-width: 0.8"/>
      </g>
     </g>
     <g id="text_7">
      <!-- 0.30 -->
      <g transform="translate(372.671875 302.797656) scale(0.1 -0.1)">
       <defs>
        <path id="DejaVuSans-33" d="M 2597 2516 
Q 3050 2419 3304 2112 
Q 3559 1806 3559 1356 
Q 3559 666 3084 287 
Q 2609 -91 1734 -91 
Q 1441 -91 1130 -33 
Q 819 25 488 141 
L 488 750 
Q 750 597 1062 519 
Q 1375 441 1716 441 
Q 2309 441 2620 675 
Q 2931 909 2931 1356 
Q 2931 1769 2642 2001 
Q 2353 2234 1838 2234 
L 1294 2234 
L 1294 2753 
L 1863 2753 
Q 2328 2753 2575 2939 
Q 2822 3125 2822 3475 
Q 2822 3834 2567 4026 
Q 2313 4219 1838 4219 
Q 1578 4219 1281 4162 
Q 984 4106 628 3988 
L 628 4550 
Q 988 4650 1302 4700 
Q 1616 4750 1894 4750 
Q 2613 4750 3031 4423 
Q 3450 4097 3450 3541 
Q 3450 3153 3228 2886 
Q 3006 2619 2597 2516 
z
" transform="scale(0.015625)"/>
       </defs>
       <use xlink:href="#DejaVuSans-30"/>
       <use xlink:href="#DejaVuSans-2e" transform="translate(63.623047 0)"/>
       <use xlink:href="#DejaVuSans-33" transform="translate(95.410156 0)"/>
       <use xlink:href="#DejaVuSans-30" transform="translate(159.033203 0)"/>
      </g>
     </g>
    </g>
    <g id="xtick_8">
     <g id="line2d_15">
      <path d="M 439.604688 288.199219 
L 439.604688 10.999219 
" clip-path="url(#p993eb658c5)" style="fill: none; stroke: #b0b0b0; stroke-width: 0.8; stroke-linecap: square"/>
     </g>
     <g id="line2d_16">
      <g>
       <use xlink:href="#m84472d2867" x="439.604688" y="288.199219" style="stroke: #000000; stroke-width: 0.8"/>
      </g>
     </g>
     <g id="text_8">
      <!-- 0.35 -->
      <g transform="translate(428.471875 302.797656) scale(0.1 -0.1)">
       <use xlink:href="#DejaVuSans-30"/>
       <use xlink:href="#DejaVuSans-2e" transform="translate(63.623047 0)"/>
       <use xlink:href="#DejaVuSans-33" transform="translate(95.410156 0)"/>
       <use xlink:href="#DejaVuSans-35" transform="translate(159.033203 0)"/>
      </g>
     </g>
    </g>
    <g id="xtick_9">
     <g id="line2d_17">
      <path d="M 495.404688 288.199219 
L 495.404688 10.999219 
" clip-path="url(#p993eb658c5)" style="fill: none; stroke: #b0b0b0; stroke-width: 0.8; stroke-linecap: square"/>
     </g>
     <g id="line2d_18">
      <g>
       <use xlink:href="#m84472d2867" x="495.404688" y="288.199219" style="stroke: #000000; stroke-width: 0.8"/>
      </g>
     </g>
     <g id="text_9">
      <!-- 0.40 -->
      <g transform="translate(484.271875 302.797656) scale(0.1 -0.1)">
       <defs>
        <path id="DejaVuSans-34" d="M 2419 4116 
L 825 1625 
L 2419 1625 
L 2419 4116 
z
M 2253 4666 
L 3047 4666 
L 3047 1625 
L 3713 1625 
L 3713 1100 
L 3047 1100 
L 3047 0 
L 2419 0 
L 2419 1100 
L 313 1100 
L 313 1709 
L 2253 4666 
z
" transform="scale(0.015625)"/>
       </defs>
       <use xlink:href="#DejaVuSans-30"/>
       <use xlink:href="#DejaVuSans-2e" transform="translate(63.623047 0)"/>
       <use xlink:href="#DejaVuSans-34" transform="translate(95.410156 0)"/>
       <use xlink:href="#DejaVuSans-30" transform="translate(159.033203 0)"/>
      </g>
     </g>
    </g>
    <g id="text_10">
     <!-- Coordenada $z$ [m] -->
     <g transform="translate(227.204687 316.475781) scale(0.1 -0.1)">
      <defs>
       <path id="DejaVuSans-43" d="M 4122 4306 
L 4122 3641 
Q 3803 3938 3442 4084 
Q 3081 4231 2675 4231 
Q 1875 4231 1450 3742 
Q 1025 3253 1025 2328 
Q 1025 1406 1450 917 
Q 1875 428 2675 428 
Q 3081 428 3442 575 
Q 3803 722 4122 1019 
L 4122 359 
Q 3791 134 3420 21 
Q 3050 -91 2638 -91 
Q 1578 -91 968 557 
Q 359 1206 359 2328 
Q 359 3453 968 4101 
Q 1578 4750 2638 4750 
Q 3056 4750 3426 4639 
Q 3797 4528 4122 4306 
z
" transform="scale(0.015625)"/>
       <path id="DejaVuSans-6f" d="M 1959 3097 
Q 1497 3097 1228 2736 
Q 959 2375 959 1747 
Q 959 1119 1226 758 
Q 1494 397 1959 397 
Q 2419 397 2687 759 
Q 2956 1122 2956 1747 
Q 2956 2369 2687 2733 
Q 2419 3097 1959 3097 
z
M 1959 3584 
Q 2709 3584 3137 3096 
Q 3566 2609 3566 1747 
Q 3566 888 3137 398 
Q 2709 -91 1959 -91 
Q 1206 -91 779 398 
Q 353 888 353 1747 
Q 353 2609 779 3096 
Q 1206 3584 1959 3584 
z
" transform="scale(0.015625)"/>
       <path id="DejaVuSans-72" d="M 2631 2963 
Q 2534 3019 2420 3045 
Q 2306 3072 2169 3072 
Q 1681 3072 1420 2755 
Q 1159 2438 1159 1844 
L 1159 0 
L 581 0 
L 581 3500 
L 1159 3500 
L 1159 2956 
Q 1341 3275 1631 3429 
Q 1922 3584 2338 3584 
Q 2397 3584 2469 3576 
Q 2541 3569 2628 3553 
L 2631 2963 
z
" transform="scale(0.015625)"/>
       <path id="DejaVuSans-64" d="M 2906 2969 
L 2906 4863 
L 3481 4863 
L 3481 0 
L 2906 0 
L 2906 525 
Q 2725 213 2448 61 
Q 2172 -91 1784 -91 
Q 1150 -91 751 415 
Q 353 922 353 1747 
Q 353 2572 751 3078 
Q 1150 3584 1784 3584 
Q 2172 3584 2448 3432 
Q 2725 3281 2906 2969 
z
M 947 1747 
Q 947 1113 1208 752 
Q 1469 391 1925 391 
Q 2381 391 2643 752 
Q 2906 1113 2906 1747 
Q 2906 2381 2643 2742 
Q 2381 3103 1925 3103 
Q 1469 3103 1208 2742 
Q 947 2381 947 1747 
z
" transform="scale(0.015625)"/>
       <path id="DejaVuSans-65" d="M 3597 1894 
L 3597 1613 
L 953 1613 
Q 991 1019 1311 708 
Q 1631 397 2203 397 
Q 2534 397 2845 478 
Q 3156 559 3463 722 
L 3463 178 
Q 3153 47 2828 -22 
Q 2503 -91 2169 -91 
Q 1331 -91 842 396 
Q 353 884 353 1716 
Q 353 2575 817 3079 
Q 1281 3584 2069 3584 
Q 2775 3584 3186 3129 
Q 3597 2675 3597 1894 
z
M 3022 2063 
Q 3016 2534 2758 2815 
Q 2500 3097 2075 3097 
Q 1594 3097 1305 2825 
Q 1016 2553 972 2059 
L 3022 2063 
z
" transform="scale(0.015625)"/>
       <path id="DejaVuSans-6e" d="M 3513 2113 
L 3513 0 
L 2938 0 
L 2938 2094 
Q 2938 2591 2744 2837 
Q 2550 3084 2163 3084 
Q 1697 3084 1428 2787 
Q 1159 2491 1159 1978 
L 1159 0 
L 581 0 
L 581 3500 
L 1159 3500 
L 1159 2956 
Q 1366 3272 1645 3428 
Q 1925 3584 2291 3584 
Q 2894 3584 3203 3211 
Q 3513 2838 3513 2113 
z
" transform="scale(0.015625)"/>
       <path id="DejaVuSans-61" d="M 2194 1759 
Q 1497 1759 1228 1600 
Q 959 1441 959 1056 
Q 959 750 1161 570 
Q 1363 391 1709 391 
Q 2188 391 2477 730 
Q 2766 1069 2766 1631 
L 2766 1759 
L 2194 1759 
z
M 3341 1997 
L 3341 0 
L 2766 0 
L 2766 531 
Q 2569 213 2275 61 
Q 1981 -91 1556 -91 
Q 1019 -91 701 211 
Q 384 513 384 1019 
Q 384 1609 779 1909 
Q 1175 2209 1959 2209 
L 2766 2209 
L 2766 2266 
Q 2766 2663 2505 2880 
Q 2244 3097 1772 3097 
Q 1472 3097 1187 3025 
Q 903 2953 641 2809 
L 641 3341 
Q 956 3463 1253 3523 
Q 1550 3584 1831 3584 
Q 2591 3584 2966 3190 
Q 3341 2797 3341 1997 
z
" transform="scale(0.015625)"/>
       <path id="DejaVuSans-20" transform="scale(0.015625)"/>
       <path id="DejaVuSans-Oblique-7a" d="M 744 3500 
L 3475 3500 
L 3372 2975 
L 738 459 
L 2913 459 
L 2822 0 
L -19 0 
L 84 525 
L 2719 3041 
L 653 3041 
L 744 3500 
z
" transform="scale(0.015625)"/>
       <path id="DejaVuSans-5b" d="M 550 4863 
L 1875 4863 
L 1875 4416 
L 1125 4416 
L 1125 -397 
L 1875 -397 
L 1875 -844 
L 550 -844 
L 550 4863 
z
" transform="scale(0.015625)"/>
       <path id="DejaVuSans-6d" d="M 3328 2828 
Q 3544 3216 3844 3400 
Q 4144 3584 4550 3584 
Q 5097 3584 5394 3201 
Q 5691 2819 5691 2113 
L 5691 0 
L 5113 0 
L 5113 2094 
Q 5113 2597 4934 2840 
Q 4756 3084 4391 3084 
Q 3944 3084 3684 2787 
Q 3425 2491 3425 1978 
L 3425 0 
L 2847 0 
L 2847 2094 
Q 2847 2600 2669 2842 
Q 2491 3084 2119 3084 
Q 1678 3084 1418 2786 
Q 1159 2488 1159 1978 
L 1159 0 
L 581 0 
L 581 3500 
L 1159 3500 
L 1159 2956 
Q 1356 3278 1631 3431 
Q 1906 3584 2284 3584 
Q 2666 3584 2933 3390 
Q 3200 3197 3328 2828 
z
" transform="scale(0.015625)"/>
       <path id="DejaVuSans-5d" d="M 1947 4863 
L 1947 -844 
L 622 -844 
L 622 -397 
L 1369 -397 
L 1369 4416 
L 622 4416 
L 622 4863 
L 1947 4863 
z
" transform="scale(0.015625)"/>
      </defs>
      <use xlink:href="#DejaVuSans-43" transform="translate(0 0.015625)"/>
      <use xlink:href="#DejaVuSans-6f" transform="translate(69.824219 0.015625)"/>
      <use xlink:href="#DejaVuSans-6f" transform="translate(131.005859 0.015625)"/>
      <use xlink:href="#DejaVuSans-72" transform="translate(192.1875 0.015625)"/>
      <use xlink:href="#DejaVuSans-64" transform="translate(233.300781 0.015625)"/>
      <use xlink:href="#DejaVuSans-65" transform="translate(296.777344 0.015625)"/>
      <use xlink:href="#DejaVuSans-6e" transform="translate(358.300781 0.015625)"/>
      <use xlink:href="#DejaVuSans-61" transform="translate(421.679688 0.015625)"/>
      <use xlink:href="#DejaVuSans-64" transform="translate(482.958984 0.015625)"/>
      <use xlink:href="#DejaVuSans-61" transform="translate(546.435547 0.015625)"/>
      <use xlink:href="#DejaVuSans-20" transform="translate(607.714844 0.015625)"/>
      <use xlink:href="#DejaVuSans-Oblique-7a" transform="translate(639.501953 0.015625)"/>
      <use xlink:href="#DejaVuSans-20" transform="translate(691.992188 0.015625)"/>
      <use xlink:href="#DejaVuSans-5b" transform="translate(723.779297 0.015625)"/>
      <use xlink:href="#DejaVuSans-6d" transform="translate(762.792969 0.015625)"/>
      <use xlink:href="#DejaVuSans-5d" transform="translate(860.205078 0.015625)"/>
     </g>
    </g>
   </g>
   <g id="matplotlib.axis_2">
    <g id="ytick_1">
     <g id="line2d_19">
      <path d="M 49.004688 288.199219 
L 495.404687 288.199219 
" clip-path="url(#p993eb658c5)" style="fill: none; stroke: #b0b0b0; stroke-width: 0.8; stroke-linecap: square"/>
     </g>
     <g id="line2d_20">
      <defs>
       <path id="me49f2ecce6" d="M 0 0 
L -3.5 0 
" style="stroke: #000000; stroke-width: 0.8"/>
      </defs>
      <g>
       <use xlink:href="#me49f2ecce6" x="49.004688" y="288.199219" style="stroke: #000000; stroke-width: 0.8"/>
      </g>
     </g>
     <g id="text_11">
      <!-- −40 -->
      <g transform="translate(20.9 291.998438) scale(0.1 -0.1)">
       <defs>
        <path id="DejaVuSans-2212" d="M 678 2272 
L 4684 2272 
L 4684 1741 
L 678 1741 
L 678 2272 
z
" transform="scale(0.015625)"/>
       </defs>
       <use xlink:href="#DejaVuSans-2212"/>
       <use xlink:href="#DejaVuSans-34" transform="translate(83.789062 0)"/>
       <use xlink:href="#DejaVuSans-30" transform="translate(147.412109 0)"/>
      </g>
     </g>
    </g>
    <g id="ytick_2">
     <g id="line2d_21">
      <path d="M 49.004688 253.549219 
L 495.404687 253.549219 
" clip-path="url(#p993eb658c5)" style="fill: none; stroke: #b0b0b0; stroke-width: 0.8; stroke-linecap: square"/>
     </g>
     <g id="line2d_22">
      <g>
       <use xlink:href="#me49f2ecce6" x="49.004688" y="253.549219" style="stroke: #000000; stroke-width: 0.8"/>
      </g>
     </g>
     <g id="text_12">
      <!-- −30 -->
      <g transform="translate(20.9 257.348438) scale(0.1 -0.1)">
       <use xlink:href="#DejaVuSans-2212"/>
       <use xlink:href="#DejaVuSans-33" transform="translate(83.789062 0)"/>
       <use xlink:href="#DejaVuSans-30" transform="translate(147.412109 0)"/>
      </g>
     </g>
    </g>
    <g id="ytick_3">
     <g id="line2d_23">
      <path d="M 49.004688 218.899219 
L 495.404687 218.899219 
" clip-path="url(#p993eb658c5)" style="fill: none; stroke: #b0b0b0; stroke-width: 0.8; stroke-linecap: square"/>
     </g>
     <g id="line2d_24">
      <g>
       <use xlink:href="#me49f2ecce6" x="49.004688" y="218.899219" style="stroke: #000000; stroke-width: 0.8"/>
      </g>
     </g>
     <g id="text_13">
      <!-- −20 -->
      <g transform="translate(20.9 222.698438) scale(0.1 -0.1)">
       <use xlink:href="#DejaVuSans-2212"/>
       <use xlink:href="#DejaVuSans-32" transform="translate(83.789062 0)"/>
       <use xlink:href="#DejaVuSans-30" transform="translate(147.412109 0)"/>
      </g>
     </g>
    </g>
    <g id="ytick_4">
     <g id="line2d_25">
      <path d="M 49.004688 184.249219 
L 495.404687 184.249219 
" clip-path="url(#p993eb658c5)" style="fill: none; stroke: #b0b0b0; stroke-width: 0.8; stroke-linecap: square"/>
     </g>
     <g id="line2d_26">
      <g>
       <use xlink:href="#me49f2ecce6" x="49.004688" y="184.249219" style="stroke: #000000; stroke-width: 0.8"/>
      </g>
     </g>
     <g id="text_14">
      <!-- −10 -->
      <g transform="translate(20.9 188.048438) scale(0.1 -0.1)">
       <use xlink:href="#DejaVuSans-2212"/>
       <use xlink:href="#DejaVuSans-31" transform="translate(83.789062 0)"/>
       <use xlink:href="#DejaVuSans-30" transform="translate(147.412109 0)"/>
      </g>
     </g>
    </g>
    <g id="ytick_5">
     <g id="line2d_27">
      <path d="M 49.004688 149.599219 
L 495.404687 149.599219 
" clip-path="url(#p993eb658c5)" style="fill: none; stroke: #b0b0b0; stroke-width: 0.8; stroke-linecap: square"/>
     </g>
     <g id="line2d_28">
      <g>
       <use xlink:href="#me49f2ecce6" x="49.004688" y="149.599219" style="stroke: #000000; stroke-width: 0.8"/>
      </g>
     </g>
     <g id="text_15">
      <!-- 0 -->
      <g transform="translate(35.642188 153.398438) scale(0.1 -0.1)">
       <use xlink:href="#DejaVuSans-30"/>
      </g>
     </g>
    </g>
    <g id="ytick_6">
     <g id="line2d_29">
      <path d="M 49.004688 114.949219 
L 495.404687 114.949219 
" clip-path="url(#p993eb658c5)" style="fill: none; stroke: #b0b0b0; stroke-width: 0.8; stroke-linecap: square"/>
     </g>
     <g id="line2d_30">
      <g>
       <use xlink:href="#me49f2ecce6" x="49.004688" y="114.949219" style="stroke: #000000; stroke-width: 0.8"/>
      </g>
     </g>
     <g id="text_16">
      <!-- 10 -->
      <g transform="translate(29.279688 118.748437) scale(0.1 -0.1)">
       <use xlink:href="#DejaVuSans-31"/>
       <use xlink:href="#DejaVuSans-30" transform="translate(63.623047 0)"/>
      </g>
     </g>
    </g>
    <g id="ytick_7">
     <g id="line2d_31">
      <path d="M 49.004688 80.299219 
L 495.404687 80.299219 
" clip-path="url(#p993eb658c5)" style="fill: none; stroke: #b0b0b0; stroke-width: 0.8; stroke-linecap: square"/>
     </g>
     <g id="line2d_32">
      <g>
       <use xlink:href="#me49f2ecce6" x="49.004688" y="80.299219" style="stroke: #000000; stroke-width: 0.8"/>
      </g>
     </g>
     <g id="text_17">
      <!-- 20 -->
      <g transform="translate(29.279688 84.098437) scale(0.1 -0.1)">
       <use xlink:href="#DejaVuSans-32"/>
       <use xlink:href="#DejaVuSans-30" transform="translate(63.623047 0)"/>
      </g>
     </g>
    </g>
    <g id="ytick_8">
     <g id="line2d_33">
      <path d="M 49.004688 45.649219 
L 495.404687 45.649219 
" clip-path="url(#p993eb658c5)" style="fill: none; stroke: #b0b0b0; stroke-width: 0.8; stroke-linecap: square"/>
     </g>
     <g id="line2d_34">
      <g>
       <use xlink:href="#me49f2ecce6" x="49.004688" y="45.649219" style="stroke: #000000; stroke-width: 0.8"/>
      </g>
     </g>
     <g id="text_18">
      <!-- 30 -->
      <g transform="translate(29.279688 49.448438) scale(0.1 -0.1)">
       <use xlink:href="#DejaVuSans-33"/>
       <use xlink:href="#DejaVuSans-30" transform="translate(63.623047 0)"/>
      </g>
     </g>
    </g>
    <g id="ytick_9">
     <g id="line2d_35">
      <path d="M 49.004688 10.999219 
L 495.404687 10.999219 
" clip-path="url(#p993eb658c5)" style="fill: none; stroke: #b0b0b0; stroke-width: 0.8; stroke-linecap: square"/>
     </g>
     <g id="line2d_36">
      <g>
       <use xlink:href="#me49f2ecce6" x="49.004688" y="10.999219" style="stroke: #000000; stroke-width: 0.8"/>
      </g>
     </g>
     <g id="text_19">
      <!-- 40 -->
      <g transform="translate(29.279688 14.798438) scale(0.1 -0.1)">
       <use xlink:href="#DejaVuSans-34"/>
       <use xlink:href="#DejaVuSans-30" transform="translate(63.623047 0)"/>
      </g>
     </g>
    </g>
    <g id="text_20">
     <!-- $p$ [Pa] -->
     <g transform="translate(14.8 164.349219) rotate(-90) scale(0.1 -0.1)">
      <defs>
       <path id="DejaVuSans-Oblique-70" d="M 3175 2156 
Q 3175 2616 2975 2859 
Q 2775 3103 2400 3103 
Q 2144 3103 1911 2972 
Q 1678 2841 1497 2591 
Q 1319 2344 1212 1994 
Q 1106 1644 1106 1300 
Q 1106 863 1306 627 
Q 1506 391 1875 391 
Q 2147 391 2380 519 
Q 2613 647 2778 891 
Q 2956 1147 3065 1494 
Q 3175 1841 3175 2156 
z
M 1394 2969 
Q 1625 3272 1939 3428 
Q 2253 3584 2638 3584 
Q 3175 3584 3472 3232 
Q 3769 2881 3769 2247 
Q 3769 1728 3584 1258 
Q 3400 788 3053 416 
Q 2822 169 2531 39 
Q 2241 -91 1919 -91 
Q 1547 -91 1294 64 
Q 1041 219 916 525 
L 556 -1331 
L -19 -1331 
L 922 3500 
L 1497 3500 
L 1394 2969 
z
" transform="scale(0.015625)"/>
       <path id="DejaVuSans-50" d="M 1259 4147 
L 1259 2394 
L 2053 2394 
Q 2494 2394 2734 2622 
Q 2975 2850 2975 3272 
Q 2975 3691 2734 3919 
Q 2494 4147 2053 4147 
L 1259 4147 
z
M 628 4666 
L 2053 4666 
Q 2838 4666 3239 4311 
Q 3641 3956 3641 3272 
Q 3641 2581 3239 2228 
Q 2838 1875 2053 1875 
L 1259 1875 
L 1259 0 
L 628 0 
L 628 4666 
z
" transform="scale(0.015625)"/>
      </defs>
      <use xlink:href="#DejaVuSans-Oblique-70" transform="translate(0 0.015625)"/>
      <use xlink:href="#DejaVuSans-20" transform="translate(63.476562 0.015625)"/>
      <use xlink:href="#DejaVuSans-5b" transform="translate(95.263672 0.015625)"/>
      <use xlink:href="#DejaVuSans-50" transform="translate(134.277344 0.015625)"/>
      <use xlink:href="#DejaVuSans-61" transform="translate(194.580078 0.015625)"/>
      <use xlink:href="#DejaVuSans-5d" transform="translate(255.859375 0.015625)"/>
     </g>
    </g>
   </g>
   <g id="line2d_37">
    <path d="M 60.164687 143.546629 
L 91.412688 154.207772 
L 122.660687 168.067331 
L 153.908687 172.525121 
L 185.156687 162.588146 
L 216.404688 145.122845 
L 247.652688 133.093453 
L 278.900688 134.833935 
L 310.148687 147.4838 
L 341.396687 159.919875 
L 372.644687 162.310667 
L 403.892687 153.975018 
L 435.140687 143.092063 
L 466.388688 139.06689 
L 497.636687 144.52421 
" clip-path="url(#p993eb658c5)" style="fill: none; stroke-dasharray: 7.4,3.2; stroke-dashoffset: 0; stroke: #000000; stroke-width: 2"/>
   </g>
   <g id="line2d_38">
    <path d="M 60.792247 -1 
L 91.412688 40.155334 
L 122.660687 107.269273 
L 153.908687 163.05425 
L 185.156687 183.238272 
L 216.404688 169.509591 
L 247.652688 143.924117 
L 278.900688 130.021564 
L 310.148687 136.062276 
L 341.396687 152.467956 
L 372.644687 163.206951 
L 403.892687 160.090835 
L 435.140687 148.182721 
L 466.388688 139.321035 
L 497.636687 140.912742 
" clip-path="url(#p993eb658c5)" style="fill: none; stroke-dasharray: 6.4,1.6,1,1.6; stroke-dashoffset: 0; stroke: #000000; stroke-opacity: 0.4"/>
   </g>
   <g id="line2d_39">
    <path d="M 60.164687 143.543334 
L 91.412688 154.209012 
L 122.660687 168.076763 
L 153.908687 172.54288 
L 185.156687 162.609907 
L 216.404688 145.141074 
L 247.652688 133.101143 
L 278.900688 134.828988 
L 310.148687 147.470938 
L 341.396687 159.908079 
L 372.644687 162.307406 
L 403.892687 153.981296 
L 435.140687 143.102088 
L 466.388688 139.072744 
L 497.636687 144.52194 
" clip-path="url(#p993eb658c5)" style="fill: none; stroke: #1f77b4; stroke-opacity: 0.8; stroke-width: 1.5; stroke-linecap: square"/>
   </g>
   <g id="line2d_40">
    <path d="M 60.164687 134.702682 
L 91.412688 128.346301 
L 122.660687 135.084731 
L 153.908687 151.921572 
L 185.156687 166.905468 
L 216.404688 169.030214 
L 247.652688 157.395091 
L 278.900688 141.793414 
L 310.148687 134.429232 
L 341.396687 139.995493 
L 372.644687 152.459116 
L 403.892687 160.871643 
L 435.140687 158.797764 
L 466.388688 149.216821 
L 497.636687 141.107038 
" clip-path="url(#p993eb658c5)" style="fill: none; stroke-dasharray: 7.4,3.2; stroke-dashoffset: 0; stroke: #006400; stroke-width: 2"/>
   </g>
   <g id="line2d_41">
    <path d="M 78.283653 326.755469 
L 91.412688 169.278174 
L 122.660687 101.565812 
L 153.908687 106.707303 
L 185.156687 141.349959 
L 216.404688 169.527835 
L 247.652688 172.650011 
L 278.900688 155.720964 
L 310.148687 137.6476 
L 341.396687 133.728299 
L 372.644687 144.389518 
L 403.892687 157.753678 
L 435.140687 161.729404 
L 466.388688 154.29075 
L 497.636687 143.680297 
" clip-path="url(#p993eb658c5)" style="fill: none; stroke-dasharray: 6.4,1.6,1,1.6; stroke-dashoffset: 0; stroke: #006400; stroke-opacity: 0.4"/>
   </g>
   <g id="line2d_42">
    <path d="M 60.164687 134.655516 
L 91.412688 128.3142 
L 122.660687 135.057719 
L 153.908687 151.903423 
L 185.156687 166.90008 
L 216.404688 169.037968 
L 247.652688 157.410917 
L 278.900688 141.808356 
L 310.148687 134.43522 
L 341.396687 139.990312 
L 372.644687 152.447795 
L 403.892687 160.862805 
L 435.140687 158.797388 
L 466.388688 149.224086 
L 497.636687 141.115455 
" clip-path="url(#p993eb658c5)" style="fill: none; stroke: #ff7f0e; stroke-opacity: 0.8; stroke-width: 1.5; stroke-linecap: square"/>
   </g>
   <g id="line2d_43"/>
   <g id="patch_3">
    <path d="M 49.004688 288.199219 
L 49.004688 10.999219 
" style="fill: none; stroke: #000000; stroke-width: 0.8; stroke-linejoin: miter; stroke-linecap: square"/>
   </g>
   <g id="patch_4">
    <path d="M 495.404687 288.199219 
L 495.404687 10.999219 
" style="fill: none; stroke: #000000; stroke-width: 0.8; stroke-linejoin: miter; stroke-linecap: square"/>
   </g>
   <g id="patch_5">
    <path d="M 49.004688 288.199219 
L 495.404688 288.199219 
" style="fill: none; stroke: #000000; stroke-width: 0.8; stroke-linejoin: miter; stroke-linecap: square"/>
   </g>
   <g id="patch_6">
    <path d="M 49.004688 10.999219 
L 495.404688 10.999219 
" style="fill: none; stroke: #000000; stroke-width: 0.8; stroke-linejoin: miter; stroke-linecap: square"/>
   </g>
   <g id="legend_1">
    <g id="patch_7">
     <path d="M 191.35625 283.199219 
L 488.404687 283.199219 
Q 490.404687 283.199219 490.404687 281.199219 
L 490.404687 238.121094 
Q 490.404687 236.121094 488.404687 236.121094 
L 191.35625 236.121094 
Q 189.35625 236.121094 189.35625 238.121094 
L 189.35625 281.199219 
Q 189.35625 283.199219 191.35625 283.199219 
z
" style="fill: #ffffff; opacity: 0.8; stroke: #cccccc; stroke-linejoin: miter"/>
    </g>
    <g id="line2d_44"/>
    <g id="text_21">
     <!-- Campo distante -->
     <g transform="translate(221.35625 247.719531) scale(0.1 -0.1)">
      <defs>
       <path id="DejaVuSans-70" d="M 1159 525 
L 1159 -1331 
L 581 -1331 
L 581 3500 
L 1159 3500 
L 1159 2969 
Q 1341 3281 1617 3432 
Q 1894 3584 2278 3584 
Q 2916 3584 3314 3078 
Q 3713 2572 3713 1747 
Q 3713 922 3314 415 
Q 2916 -91 2278 -91 
Q 1894 -91 1617 61 
Q 1341 213 1159 525 
z
M 3116 1747 
Q 3116 2381 2855 2742 
Q 2594 3103 2138 3103 
Q 1681 3103 1420 2742 
Q 1159 2381 1159 1747 
Q 1159 1113 1420 752 
Q 1681 391 2138 391 
Q 2594 391 2855 752 
Q 3116 1113 3116 1747 
z
" transform="scale(0.015625)"/>
       <path id="DejaVuSans-69" d="M 603 3500 
L 1178 3500 
L 1178 0 
L 603 0 
L 603 3500 
z
M 603 4863 
L 1178 4863 
L 1178 4134 
L 603 4134 
L 603 4863 
z
" transform="scale(0.015625)"/>
       <path id="DejaVuSans-73" d="M 2834 3397 
L 2834 2853 
Q 2591 2978 2328 3040 
Q 2066 3103 1784 3103 
Q 1356 3103 1142 2972 
Q 928 2841 928 2578 
Q 928 2378 1081 2264 
Q 1234 2150 1697 2047 
L 1894 2003 
Q 2506 1872 2764 1633 
Q 3022 1394 3022 966 
Q 3022 478 2636 193 
Q 2250 -91 1575 -91 
Q 1294 -91 989 -36 
Q 684 19 347 128 
L 347 722 
Q 666 556 975 473 
Q 1284 391 1588 391 
Q 1994 391 2212 530 
Q 2431 669 2431 922 
Q 2431 1156 2273 1281 
Q 2116 1406 1581 1522 
L 1381 1569 
Q 847 1681 609 1914 
Q 372 2147 372 2553 
Q 372 3047 722 3315 
Q 1072 3584 1716 3584 
Q 2034 3584 2315 3537 
Q 2597 3491 2834 3397 
z
" transform="scale(0.015625)"/>
       <path id="DejaVuSans-74" d="M 1172 4494 
L 1172 3500 
L 2356 3500 
L 2356 3053 
L 1172 3053 
L 1172 1153 
Q 1172 725 1289 603 
Q 1406 481 1766 481 
L 2356 481 
L 2356 0 
L 1766 0 
Q 1100 0 847 248 
Q 594 497 594 1153 
L 594 3053 
L 172 3053 
L 172 3500 
L 594 3500 
L 594 4494 
L 1172 4494 
z
" transform="scale(0.015625)"/>
      </defs>
      <use xlink:href="#DejaVuSans-43"/>
      <use xlink:href="#DejaVuSans-61" transform="translate(69.824219 0)"/>
      <use xlink:href="#DejaVuSans-6d" transform="translate(131.103516 0)"/>
      <use xlink:href="#DejaVuSans-70" transform="translate(228.515625 0)"/>
      <use xlink:href="#DejaVuSans-6f" transform="translate(291.992188 0)"/>
      <use xlink:href="#DejaVuSans-20" transform="translate(353.173828 0)"/>
      <use xlink:href="#DejaVuSans-64" transform="translate(384.960938 0)"/>
      <use xlink:href="#DejaVuSans-69" transform="translate(448.4375 0)"/>
      <use xlink:href="#DejaVuSans-73" transform="translate(476.220703 0)"/>
      <use xlink:href="#DejaVuSans-74" transform="translate(528.320312 0)"/>
      <use xlink:href="#DejaVuSans-61" transform="translate(567.529297 0)"/>
      <use xlink:href="#DejaVuSans-6e" transform="translate(628.808594 0)"/>
      <use xlink:href="#DejaVuSans-74" transform="translate(692.1875 0)"/>
      <use xlink:href="#DejaVuSans-65" transform="translate(731.396484 0)"/>
     </g>
    </g>
    <g id="line2d_45">
     <path d="M 193.35625 258.899219 
L 203.35625 258.899219 
L 213.35625 258.899219 
" style="fill: none; stroke-dasharray: 6.4,1.6,1,1.6; stroke-dashoffset: 0; stroke: #000000; stroke-opacity: 0.4"/>
    </g>
    <g id="text_22">
     <!-- $\mathfrak{Re}(p)$ -->
     <g transform="translate(221.35625 262.399219) scale(0.1 -0.1)">
      <defs>
       <path id="STIXGeneral-Regular-211c" d="M 5203 730 
L 5306 602 
Q 5152 448 4857 217 
Q 4563 -13 4346 -141 
L 4256 -141 
Q 3923 -32 3772 361 
Q 3622 755 3622 1197 
Q 3622 2067 3290 2176 
L 2816 2061 
Q 2682 1478 2349 892 
Q 2016 307 1555 -141 
Q 915 237 800 256 
Q 627 109 518 -58 
L 378 32 
L 979 960 
Q 1632 570 1747 570 
Q 1862 570 1936 765 
Q 2010 960 2035 1334 
Q 2061 1709 2067 1952 
Q 2074 2195 2074 2592 
Q 2074 4250 1382 4250 
Q 1190 4250 1072 4122 
Q 954 3994 954 3821 
Q 954 3648 1030 3520 
Q 1107 3392 1212 3309 
Q 1318 3226 1427 3139 
Q 1536 3053 1613 2909 
Q 1690 2765 1690 2566 
Q 1690 2246 1373 1964 
Q 1056 1683 627 1581 
L 570 1722 
Q 742 1779 896 1916 
Q 1050 2054 1050 2240 
Q 1050 2394 976 2518 
Q 902 2643 793 2739 
Q 685 2835 576 2931 
Q 467 3027 393 3161 
Q 320 3296 320 3456 
Q 320 3917 662 4182 
Q 1005 4448 1504 4448 
Q 2189 4448 2637 3885 
L 3488 4506 
Q 4083 4506 4412 4227 
Q 4742 3949 4742 3552 
Q 4742 3187 4540 2892 
Q 4339 2598 3949 2451 
L 3949 2438 
Q 4166 2304 4288 2045 
Q 4410 1786 4445 1520 
Q 4480 1254 4509 1004 
Q 4538 755 4618 598 
Q 4698 442 4858 442 
Q 4934 442 5203 730 
z
M 2842 2285 
L 3053 2330 
Q 3558 2438 3776 2739 
Q 3994 3040 3994 3398 
Q 3994 3616 3837 3814 
Q 3680 4013 3398 4013 
Q 3213 4013 3072 3936 
Q 2931 3859 2739 3667 
Q 2867 3309 2867 2976 
Q 2867 2560 2842 2285 
z
" transform="scale(0.015625)"/>
       <path id="STIXGeneral-Regular-1d522" d="M 2426 1632 
L 954 1082 
Q 954 774 1190 531 
Q 1427 288 1670 288 
Q 1715 288 1955 377 
Q 2195 467 2298 518 
L 2362 384 
L 1293 -115 
L 1203 -115 
Q 1082 -115 931 -16 
Q 781 83 704 179 
Q 301 646 301 1402 
Q 301 1965 566 2307 
Q 832 2650 1350 2861 
Q 1530 2931 1837 2995 
L 1926 2995 
L 2426 1632 
z
M 954 1286 
L 1670 1562 
Q 1779 1606 1779 1766 
Q 1779 1843 1635 2195 
Q 1491 2547 1414 2675 
Q 1306 2656 1222 2586 
Q 954 2406 954 1683 
L 954 1286 
z
" transform="scale(0.015625)"/>
       <path id="DejaVuSans-28" d="M 1984 4856 
Q 1566 4138 1362 3434 
Q 1159 2731 1159 2009 
Q 1159 1288 1364 580 
Q 1569 -128 1984 -844 
L 1484 -844 
Q 1016 -109 783 600 
Q 550 1309 550 2009 
Q 550 2706 781 3412 
Q 1013 4119 1484 4856 
L 1984 4856 
z
" transform="scale(0.015625)"/>
       <path id="DejaVuSans-29" d="M 513 4856 
L 1013 4856 
Q 1481 4119 1714 3412 
Q 1947 2706 1947 2009 
Q 1947 1309 1714 600 
Q 1481 -109 1013 -844 
L 513 -844 
Q 928 -128 1133 580 
Q 1338 1288 1338 2009 
Q 1338 2731 1133 3434 
Q 928 4138 513 4856 
z
" transform="scale(0.015625)"/>
      </defs>
      <use xlink:href="#STIXGeneral-Regular-211c" transform="translate(0 0.125)"/>
      <use xlink:href="#STIXGeneral-Regular-1d522" transform="translate(87.399994 0.125)"/>
      <use xlink:href="#DejaVuSans-28" transform="translate(129.399979 0.125)"/>
      <use xlink:href="#DejaVuSans-Oblique-70" transform="translate(168.413651 0.125)"/>
      <use xlink:href="#DejaVuSans-29" transform="translate(231.890213 0.125)"/>
     </g>
    </g>
    <g id="line2d_46">
     <path d="M 193.35625 273.599219 
L 203.35625 273.599219 
L 213.35625 273.599219 
" style="fill: none; stroke-dasharray: 6.4,1.6,1,1.6; stroke-dashoffset: 0; stroke: #006400; stroke-opacity: 0.4"/>
    </g>
    <g id="text_23">
     <!-- $\mathfrak{Im}(p)$ -->
     <g transform="translate(221.35625 277.099219) scale(0.1 -0.1)">
      <defs>
       <path id="STIXGeneral-Regular-2111" d="M 4403 4314 
L 4550 4269 
Q 4499 4090 4438 3949 
Q 4378 3808 4262 3645 
Q 4147 3482 3952 3392 
Q 3757 3302 3494 3302 
Q 3117 3302 2624 3555 
Q 2131 3808 1766 3808 
Q 1485 3808 1251 3622 
Q 1018 3437 1018 3078 
Q 1018 2771 1216 2601 
Q 1414 2432 1670 2432 
Q 1888 2432 2086 2522 
L 2138 2381 
Q 1888 2253 1645 2253 
Q 1158 2253 870 2509 
Q 582 2765 582 3181 
Q 582 3686 976 4067 
Q 1370 4448 1971 4448 
Q 2298 4448 2570 4368 
Q 2842 4288 3002 4195 
Q 3162 4102 3392 4022 
Q 3622 3942 3866 3942 
Q 4013 3942 4137 4022 
Q 4262 4102 4316 4172 
Q 4371 4243 4403 4314 
z
M 4499 2669 
L 4384 2566 
Q 4166 2758 3968 2758 
Q 3827 2758 3715 2659 
Q 3603 2560 3603 2387 
Q 3603 2246 3772 2016 
Q 3942 1786 4115 1510 
Q 4288 1235 4288 973 
Q 4288 486 3833 134 
Q 3379 -218 2758 -218 
Q 2029 -218 1690 38 
Q 1402 250 1242 627 
Q 1101 947 883 947 
Q 749 947 627 854 
Q 506 762 435 621 
L 288 659 
Q 346 902 608 1180 
Q 870 1459 1203 1459 
Q 1382 1459 1523 1398 
Q 1664 1338 1747 1267 
Q 1830 1197 1910 1046 
Q 1990 896 2022 816 
Q 2054 736 2112 557 
Q 2298 26 2810 26 
Q 3117 26 3309 202 
Q 3501 378 3501 627 
Q 3501 838 3408 1049 
Q 3315 1261 3203 1408 
Q 3091 1555 2998 1776 
Q 2906 1997 2906 2221 
Q 2906 2573 3171 2800 
Q 3437 3027 3770 3027 
Q 3968 3027 4115 2969 
Q 4262 2912 4329 2851 
Q 4397 2790 4499 2669 
z
" transform="scale(0.015625)"/>
       <path id="STIXGeneral-Regular-1d52a" d="M 5478 538 
L 4832 -115 
L 4730 -115 
Q 4282 102 4282 794 
L 4282 2259 
L 3885 2560 
L 3264 2272 
L 3264 890 
Q 3264 525 3558 525 
L 3558 435 
Q 3328 435 3155 252 
Q 2982 70 2982 -160 
L 2893 -160 
Q 2893 70 2717 252 
Q 2541 435 2317 435 
L 2317 525 
Q 2464 525 2537 627 
Q 2611 730 2611 890 
L 2611 1894 
Q 2611 2278 2451 2438 
Q 2330 2547 2234 2547 
Q 2118 2547 1594 2272 
L 1594 890 
Q 1594 525 1888 525 
L 1888 435 
Q 1658 435 1485 252 
Q 1312 70 1312 -160 
L 1222 -160 
Q 1222 70 1049 252 
Q 877 435 646 435 
L 646 525 
Q 794 525 867 627 
Q 941 730 941 890 
L 941 2202 
Q 941 2394 787 2394 
Q 678 2394 474 2202 
L 378 2336 
L 1082 2995 
L 1178 2995 
Q 1517 2854 1574 2490 
L 2586 2995 
L 2675 2995 
Q 3091 2854 3213 2477 
L 4307 2995 
L 4397 2995 
Q 4858 2630 5216 2598 
L 5216 2502 
Q 4934 2458 4934 2285 
L 4934 1024 
Q 4934 698 4963 592 
Q 4992 486 5075 486 
Q 5197 486 5280 570 
L 5357 653 
L 5478 538 
z
" transform="scale(0.015625)"/>
      </defs>
      <use xlink:href="#STIXGeneral-Regular-2111" transform="translate(0 0.125)"/>
      <use xlink:href="#STIXGeneral-Regular-1d52a" transform="translate(76.199982 0.125)"/>
      <use xlink:href="#DejaVuSans-28" transform="translate(167.199966 0.125)"/>
      <use xlink:href="#DejaVuSans-Oblique-70" transform="translate(206.213638 0.125)"/>
      <use xlink:href="#DejaVuSans-29" transform="translate(269.690201 0.125)"/>
     </g>
    </g>
    <g id="line2d_47"/>
    <g id="text_24">
     <!-- Analítico -->
     <g transform="translate(348.648438 247.719531) scale(0.1 -0.1)">
      <defs>
       <path id="DejaVuSans-41" d="M 2188 4044 
L 1331 1722 
L 3047 1722 
L 2188 4044 
z
M 1831 4666 
L 2547 4666 
L 4325 0 
L 3669 0 
L 3244 1197 
L 1141 1197 
L 716 0 
L 50 0 
L 1831 4666 
z
" transform="scale(0.015625)"/>
       <path id="DejaVuSans-6c" d="M 603 4863 
L 1178 4863 
L 1178 0 
L 603 0 
L 603 4863 
z
" transform="scale(0.015625)"/>
       <path id="DejaVuSans-ed" d="M 1322 5119 
L 1944 5119 
L 926 3944 
L 447 3944 
L 1322 5119 
z
M 603 3500 
L 1178 3500 
L 1178 0 
L 603 0 
L 603 3500 
z
M 891 3584 
L 891 3584 
z
" transform="scale(0.015625)"/>
       <path id="DejaVuSans-63" d="M 3122 3366 
L 3122 2828 
Q 2878 2963 2633 3030 
Q 2388 3097 2138 3097 
Q 1578 3097 1268 2742 
Q 959 2388 959 1747 
Q 959 1106 1268 751 
Q 1578 397 2138 397 
Q 2388 397 2633 464 
Q 2878 531 3122 666 
L 3122 134 
Q 2881 22 2623 -34 
Q 2366 -91 2075 -91 
Q 1284 -91 818 406 
Q 353 903 353 1747 
Q 353 2603 823 3093 
Q 1294 3584 2113 3584 
Q 2378 3584 2631 3529 
Q 2884 3475 3122 3366 
z
" transform="scale(0.015625)"/>
      </defs>
      <use xlink:href="#DejaVuSans-41"/>
      <use xlink:href="#DejaVuSans-6e" transform="translate(68.408203 0)"/>
      <use xlink:href="#DejaVuSans-61" transform="translate(131.787109 0)"/>
      <use xlink:href="#DejaVuSans-6c" transform="translate(193.066406 0)"/>
      <use xlink:href="#DejaVuSans-ed" transform="translate(220.849609 0)"/>
      <use xlink:href="#DejaVuSans-74" transform="translate(248.632812 0)"/>
      <use xlink:href="#DejaVuSans-69" transform="translate(287.841797 0)"/>
      <use xlink:href="#DejaVuSans-63" transform="translate(315.625 0)"/>
      <use xlink:href="#DejaVuSans-6f" transform="translate(370.605469 0)"/>
     </g>
    </g>
    <g id="line2d_48">
     <path d="M 320.648438 258.899219 
L 330.648438 258.899219 
L 340.648438 258.899219 
" style="fill: none; stroke-dasharray: 7.4,3.2; stroke-dashoffset: 0; stroke: #000000; stroke-width: 2"/>
    </g>
    <g id="text_25">
     <!-- $\mathfrak{Re}(p)$ -->
     <g transform="translate(348.648438 262.399219) scale(0.1 -0.1)">
      <use xlink:href="#STIXGeneral-Regular-211c" transform="translate(0 0.125)"/>
      <use xlink:href="#STIXGeneral-Regular-1d522" transform="translate(87.399994 0.125)"/>
      <use xlink:href="#DejaVuSans-28" transform="translate(129.399979 0.125)"/>
      <use xlink:href="#DejaVuSans-Oblique-70" transform="translate(168.413651 0.125)"/>
      <use xlink:href="#DejaVuSans-29" transform="translate(231.890213 0.125)"/>
     </g>
    </g>
    <g id="line2d_49">
     <path d="M 320.648438 273.599219 
L 330.648438 273.599219 
L 340.648438 273.599219 
" style="fill: none; stroke-dasharray: 7.4,3.2; stroke-dashoffset: 0; stroke: #006400; stroke-width: 2"/>
    </g>
    <g id="text_26">
     <!-- $\mathfrak{Im}(p)$ -->
     <g transform="translate(348.648438 277.099219) scale(0.1 -0.1)">
      <use xlink:href="#STIXGeneral-Regular-2111" transform="translate(0 0.125)"/>
      <use xlink:href="#STIXGeneral-Regular-1d52a" transform="translate(76.199982 0.125)"/>
      <use xlink:href="#DejaVuSans-28" transform="translate(167.199966 0.125)"/>
      <use xlink:href="#DejaVuSans-Oblique-70" transform="translate(206.213638 0.125)"/>
      <use xlink:href="#DejaVuSans-29" transform="translate(269.690201 0.125)"/>
     </g>
    </g>
    <g id="line2d_50"/>
    <g id="text_27">
     <!-- Simulado -->
     <g transform="translate(439.826563 247.719531) scale(0.1 -0.1)">
      <defs>
       <path id="DejaVuSans-53" d="M 3425 4513 
L 3425 3897 
Q 3066 4069 2747 4153 
Q 2428 4238 2131 4238 
Q 1616 4238 1336 4038 
Q 1056 3838 1056 3469 
Q 1056 3159 1242 3001 
Q 1428 2844 1947 2747 
L 2328 2669 
Q 3034 2534 3370 2195 
Q 3706 1856 3706 1288 
Q 3706 609 3251 259 
Q 2797 -91 1919 -91 
Q 1588 -91 1214 -16 
Q 841 59 441 206 
L 441 856 
Q 825 641 1194 531 
Q 1563 422 1919 422 
Q 2459 422 2753 634 
Q 3047 847 3047 1241 
Q 3047 1584 2836 1778 
Q 2625 1972 2144 2069 
L 1759 2144 
Q 1053 2284 737 2584 
Q 422 2884 422 3419 
Q 422 4038 858 4394 
Q 1294 4750 2059 4750 
Q 2388 4750 2728 4690 
Q 3069 4631 3425 4513 
z
" transform="scale(0.015625)"/>
       <path id="DejaVuSans-75" d="M 544 1381 
L 544 3500 
L 1119 3500 
L 1119 1403 
Q 1119 906 1312 657 
Q 1506 409 1894 409 
Q 2359 409 2629 706 
Q 2900 1003 2900 1516 
L 2900 3500 
L 3475 3500 
L 3475 0 
L 2900 0 
L 2900 538 
Q 2691 219 2414 64 
Q 2138 -91 1772 -91 
Q 1169 -91 856 284 
Q 544 659 544 1381 
z
M 1991 3584 
L 1991 3584 
z
" transform="scale(0.015625)"/>
      </defs>
      <use xlink:href="#DejaVuSans-53"/>
      <use xlink:href="#DejaVuSans-69" transform="translate(63.476562 0)"/>
      <use xlink:href="#DejaVuSans-6d" transform="translate(91.259766 0)"/>
      <use xlink:href="#DejaVuSans-75" transform="translate(188.671875 0)"/>
      <use xlink:href="#DejaVuSans-6c" transform="translate(252.050781 0)"/>
      <use xlink:href="#DejaVuSans-61" transform="translate(279.833984 0)"/>
      <use xlink:href="#DejaVuSans-64" transform="translate(341.113281 0)"/>
      <use xlink:href="#DejaVuSans-6f" transform="translate(404.589844 0)"/>
     </g>
    </g>
    <g id="line2d_51">
     <path d="M 411.826563 258.899219 
L 421.826563 258.899219 
L 431.826563 258.899219 
" style="fill: none; stroke: #1f77b4; stroke-opacity: 0.8; stroke-width: 1.5; stroke-linecap: square"/>
    </g>
    <g id="text_28">
     <!-- $\mathfrak{Re}(p)$ -->
     <g transform="translate(439.826563 262.399219) scale(0.1 -0.1)">
      <use xlink:href="#STIXGeneral-Regular-211c" transform="translate(0 0.125)"/>
      <use xlink:href="#STIXGeneral-Regular-1d522" transform="translate(87.399994 0.125)"/>
      <use xlink:href="#DejaVuSans-28" transform="translate(129.399979 0.125)"/>
      <use xlink:href="#DejaVuSans-Oblique-70" transform="translate(168.413651 0.125)"/>
      <use xlink:href="#DejaVuSans-29" transform="translate(231.890213 0.125)"/>
     </g>
    </g>
    <g id="line2d_52">
     <path d="M 411.826563 273.599219 
L 421.826563 273.599219 
L 431.826563 273.599219 
" style="fill: none; stroke: #ff7f0e; stroke-opacity: 0.8; stroke-width: 1.5; stroke-linecap: square"/>
    </g>
    <g id="text_29">
     <!-- $\mathfrak{Im}(p)$ -->
     <g transform="translate(439.826563 277.099219) scale(0.1 -0.1)">
      <use xlink:href="#STIXGeneral-Regular-2111" transform="translate(0 0.125)"/>
      <use xlink:href="#STIXGeneral-Regular-1d52a" transform="translate(76.199982 0.125)"/>
      <use xlink:href="#DejaVuSans-28" transform="translate(167.199966 0.125)"/>
      <use xlink:href="#DejaVuSans-Oblique-70" transform="translate(206.213638 0.125)"/>
      <use xlink:href="#DejaVuSans-29" transform="translate(269.690201 0.125)"/>
     </g>
    </g>
   </g>
  </g>
 </g>
 <defs>
  <clipPath id="p993eb658c5">
   <rect x="49.004688" y="10.999219" width="446.4" height="277.2"/>
  </clipPath>
 </defs>
</svg>
