<?xml version="1.0" encoding="UTF-8" standalone="no"?>
<svg
   width="312.19989pt"
   height="230.61238pt"
   viewBox="0 0 312.1999 230.61238"
   version="1.1"
   id="svg79"
   xmlns:xlink="http://www.w3.org/1999/xlink"
   xmlns="http://www.w3.org/2000/svg"
   xmlns:svg="http://www.w3.org/2000/svg"
   xmlns:rdf="http://www.w3.org/1999/02/22-rdf-syntax-ns#"
   xmlns:cc="http://creativecommons.org/ns#"
   xmlns:dc="http://purl.org/dc/elements/1.1/">
  <metadata
     id="metadata1">
    <rdf:RDF>
      <cc:Work>
        <dc:type
           rdf:resource="http://purl.org/dc/dcmitype/StillImage" />
        <dc:date>2025-07-01T22:35:26.397530</dc:date>
        <dc:format>image/svg+xml</dc:format>
        <dc:creator>
          <cc:Agent>
            <dc:title>Matplotlib v3.10.3, https://matplotlib.org/</dc:title>
          </cc:Agent>
        </dc:creator>
      </cc:Work>
    </rdf:RDF>
  </metadata>
  <defs
     id="defs1">
    <style
       type="text/css"
       id="style1">*{stroke-linejoin: round; stroke-linecap: butt}</style>
  </defs>
  <g
     id="figure_1"
     transform="translate(-7.6890629,-11.7)">
    <g
       id="axes_1">
      <g
         id="patch_2">
        <path
           d="m 297.97841,206.784 c 0,-35.27511 -14.02793,-69.14153 -38.9712,-94.0848 -24.94327,-24.94327 -58.80969,-38.9712 -94.0848,-38.9712 -35.27511,0 -69.141533,14.02793 -94.084804,38.9712 -24.94327,24.94327 -38.9712,58.80969 -38.9712,94.0848 H 164.92241 c 0,0 0,0 0,0 0,0 0,0 0,0 0,0 0,0 0,0 0,0 0,0 0,0 z"
           style="fill:#ffffff"
           id="path2" />
      </g>
      <g
         id="matplotlib.axis_1">
        <g
           id="xtick_1">
          <g
             id="line2d_1">
            <path
               d="M 164.92241,206.784 H 31.866406"
               clip-path="url(#pdcd4977148)"
               style="fill:none;stroke:#b0b0b0;stroke-width:0.8;stroke-linecap:square"
               id="path3" />
          </g>
          <g
             id="text_1">
            <!-- -90° -->
            <g
               transform="matrix(0.1,0,0,-0.1,7.2,209.54337)"
               id="g6">
              <defs
                 id="defs3">
                <path
                   id="DejaVuSans-2d"
                   d="M 313,2009 H 1997 V 1497 H 313 Z"
                   transform="scale(0.015625)" />
                <path
                   id="DejaVuSans-39"
                   d="m 703,97 v 575 q 238,-113 481,-172 244,-59 479,-59 625,0 954,420 330,420 377,1277 -181,-269 -460,-413 -278,-144 -615,-144 -700,0 -1108,423 -408,424 -408,1159 0,718 425,1152 425,435 1131,435 810,0 1236,-621 427,-620 427,-1801 Q 3622,1225 3098,567 2575,-91 1691,-91 1453,-91 1209,-44 966,3 703,97 Z m 1256,1978 q 425,0 673,290 249,291 249,798 0,503 -249,795 -248,292 -673,292 -425,0 -673,-292 -248,-292 -248,-795 0,-507 248,-798 248,-290 673,-290 z"
                   transform="scale(0.015625)" />
                <path
                   id="DejaVuSans-30"
                   d="m 2034,4250 q -487,0 -733,-480 -245,-479 -245,-1442 0,-959 245,-1439 246,-480 733,-480 491,0 736,480 246,480 246,1439 0,963 -246,1442 -245,480 -736,480 z m 0,500 q 785,0 1199,-621 414,-620 414,-1801 0,-1178 -414,-1799 -414,-620 -1199,-620 -784,0 -1198,620 -414,621 -414,1799 0,1181 414,1801 414,621 1198,621 z"
                   transform="scale(0.015625)" />
                <path
                   id="DejaVuSans-b0"
                   d="m 1600,4347 q -250,0 -422,-174 -172,-173 -172,-423 0,-247 172,-417 172,-170 422,-170 250,0 422,170 172,170 172,417 0,247 -174,422 -173,175 -420,175 z m 0,403 q 200,0 384,-77 185,-76 319,-220 144,-140 216,-319 72,-178 72,-384 0,-412 -289,-698 -289,-286 -708,-286 -422,0 -704,281 -281,281 -281,703 0,419 287,709 288,291 704,291 z"
                   transform="scale(0.015625)" />
              </defs>
              <use
                 xlink:href="#DejaVuSans-2d"
                 id="use3" />
              <use
                 xlink:href="#DejaVuSans-39"
                 transform="translate(36.083984)"
                 id="use4" />
              <use
                 xlink:href="#DejaVuSans-30"
                 transform="translate(99.707031)"
                 id="use5" />
              <use
                 xlink:href="#DejaVuSans-b0"
                 transform="translate(163.33008)"
                 id="use6" />
            </g>
          </g>
        </g>
        <g
           id="xtick_2">
          <g
             id="line2d_2">
            <path
               d="M 164.92241,206.784 49.69253,140.256"
               clip-path="url(#pdcd4977148)"
               style="fill:none;stroke:#b0b0b0;stroke-width:0.8;stroke-linecap:square"
               id="path6" />
          </g>
          <g
             id="text_2">
            <!-- -60° -->
            <g
               transform="matrix(0.1,0,0,-0.1,26.901768,136.01537)"
               id="g10">
              <defs
                 id="defs6">
                <path
                   id="DejaVuSans-36"
                   d="m 2113,2584 q -425,0 -674,-291 -248,-290 -248,-796 0,-503 248,-796 249,-292 674,-292 425,0 673,292 248,293 248,796 0,506 -248,796 -248,291 -673,291 z m 1253,1979 v -575 q -238,112 -480,171 -242,60 -480,60 -625,0 -955,-422 -329,-422 -376,-1275 184,272 462,417 279,145 613,145 703,0 1111,-427 408,-426 408,-1160 0,-719 -425,-1154 -425,-434 -1131,-434 -810,0 -1238,620 -428,621 -428,1799 0,1106 525,1764 525,658 1409,658 238,0 480,-47 242,-47 505,-140 z"
                   transform="scale(0.015625)" />
              </defs>
              <use
                 xlink:href="#DejaVuSans-2d"
                 id="use7" />
              <use
                 xlink:href="#DejaVuSans-36"
                 transform="translate(36.083984)"
                 id="use8" />
              <use
                 xlink:href="#DejaVuSans-30"
                 transform="translate(99.707031)"
                 id="use9" />
              <use
                 xlink:href="#DejaVuSans-b0"
                 transform="translate(163.33008)"
                 id="use10" />
            </g>
          </g>
        </g>
        <g
           id="xtick_3">
          <g
             id="line2d_3">
            <path
               d="M 164.92241,206.784 98.394406,91.554124"
               clip-path="url(#pdcd4977148)"
               style="fill:none;stroke:#b0b0b0;stroke-width:0.8;stroke-linecap:square"
               id="path10" />
          </g>
          <g
             id="text_3">
            <!-- -30° -->
            <g
               transform="matrix(0.1,0,0,-0.1,80.728,82.189143)"
               id="g14">
              <defs
                 id="defs10">
                <path
                   id="DejaVuSans-33"
                   d="m 2597,2516 q 453,-97 707,-404 255,-306 255,-756 0,-690 -475,-1069 -475,-378 -1350,-378 -293,0 -604,58 -311,58 -642,174 v 609 q 262,-153 574,-231 313,-78 654,-78 593,0 904,234 311,234 311,681 0,413 -289,645 -289,233 -804,233 h -544 v 519 h 569 q 465,0 712,186 247,186 247,536 0,359 -255,551 -254,193 -729,193 -260,0 -557,-57 -297,-56 -653,-174 v 562 q 360,100 674,150 314,50 592,50 719,0 1137,-327 419,-326 419,-882 0,-388 -222,-655 -222,-267 -631,-370 z"
                   transform="scale(0.015625)" />
              </defs>
              <use
                 xlink:href="#DejaVuSans-2d"
                 id="use11" />
              <use
                 xlink:href="#DejaVuSans-33"
                 transform="translate(36.083984)"
                 id="use12" />
              <use
                 xlink:href="#DejaVuSans-30"
                 transform="translate(99.707031)"
                 id="use13" />
              <use
                 xlink:href="#DejaVuSans-b0"
                 transform="translate(163.33008)"
                 id="use14" />
            </g>
          </g>
        </g>
        <g
           id="xtick_4">
          <g
             id="line2d_4">
            <path
               d="M 164.92241,206.784 V 73.728"
               clip-path="url(#pdcd4977148)"
               style="fill:none;stroke:#b0b0b0;stroke-width:0.8;stroke-linecap:square"
               id="path14" />
          </g>
          <g
             id="text_4">
            <!-- 0° -->
            <g
               transform="matrix(0.1,0,0,-0.1,159.24116,62.487375)"
               id="g16">
              <use
                 xlink:href="#DejaVuSans-30"
                 id="use15" />
              <use
                 xlink:href="#DejaVuSans-b0"
                 transform="translate(63.623047)"
                 id="use16" />
            </g>
          </g>
        </g>
        <g
           id="xtick_5">
          <g
             id="line2d_5">
            <path
               d="m 164.92241,206.784 66.528,-115.229876"
               clip-path="url(#pdcd4977148)"
               style="fill:none;stroke:#b0b0b0;stroke-width:0.8;stroke-linecap:square"
               id="path16" />
          </g>
          <g
             id="text_5">
            <!-- 30° -->
            <g
               transform="matrix(0.1,0,0,-0.1,229.58791,82.189143)"
               id="g19">
              <use
                 xlink:href="#DejaVuSans-33"
                 id="use17" />
              <use
                 xlink:href="#DejaVuSans-30"
                 transform="translate(63.623047)"
                 id="use18" />
              <use
                 xlink:href="#DejaVuSans-b0"
                 transform="translate(127.24609)"
                 id="use19" />
            </g>
          </g>
        </g>
        <g
           id="xtick_6">
          <g
             id="line2d_6">
            <path
               d="M 164.92241,206.784 280.15228,140.256"
               clip-path="url(#pdcd4977148)"
               style="fill:none;stroke:#b0b0b0;stroke-width:0.8;stroke-linecap:square"
               id="path19" />
          </g>
          <g
             id="text_6">
            <!-- 60° -->
            <g
               transform="matrix(0.1,0,0,-0.1,283.41414,136.01537)"
               id="g22">
              <use
                 xlink:href="#DejaVuSans-36"
                 id="use20" />
              <use
                 xlink:href="#DejaVuSans-30"
                 transform="translate(63.623047)"
                 id="use21" />
              <use
                 xlink:href="#DejaVuSans-b0"
                 transform="translate(127.24609)"
                 id="use22" />
            </g>
          </g>
        </g>
        <g
           id="xtick_7">
          <g
             id="line2d_7">
            <path
               d="m 164.92241,206.784 h 133.056"
               clip-path="url(#pdcd4977148)"
               style="fill:none;stroke:#b0b0b0;stroke-width:0.8;stroke-linecap:square"
               id="path22" />
          </g>
          <g
             id="text_7">
            <!-- 90° -->
            <g
               transform="matrix(0.1,0,0,-0.1,303.11591,209.54337)"
               id="g25">
              <use
                 xlink:href="#DejaVuSans-39"
                 id="use23" />
              <use
                 xlink:href="#DejaVuSans-30"
                 transform="translate(63.623047)"
                 id="use24" />
              <use
                 xlink:href="#DejaVuSans-b0"
                 transform="translate(127.24609)"
                 id="use25" />
            </g>
          </g>
        </g>
        <g
           id="text_8">
          <!-- Diretividade [dB] -->
          <g
             transform="matrix(0.1,0,0,-0.1,122.38178,240.99364)"
             id="g42">
            <defs
               id="defs25">
              <path
                 id="DejaVuSans-44"
                 d="M 1259,4147 V 519 h 763 q 966,0 1414,437 448,438 448,1382 0,937 -448,1373 -448,436 -1414,436 z m -631,519 h 1297 q 1356,0 1990,-564 635,-564 635,-1764 Q 4550,1131 3912,565 3275,0 1925,0 H 628 Z"
                 transform="scale(0.015625)" />
              <path
                 id="DejaVuSans-69"
                 d="m 603,3500 h 575 V 0 H 603 Z m 0,1363 h 575 V 4134 H 603 Z"
                 transform="scale(0.015625)" />
              <path
                 id="DejaVuSans-72"
                 d="m 2631,2963 q -97,56 -211,82 -114,27 -251,27 -488,0 -749,-317 -261,-317 -261,-911 V 0 H 581 v 3500 h 578 v -544 q 182,319 472,473 291,155 707,155 59,0 131,-8 72,-7 159,-23 z"
                 transform="scale(0.015625)" />
              <path
                 id="DejaVuSans-65"
                 d="M 3597,1894 V 1613 H 953 q 38,-594 358,-905 320,-311 892,-311 331,0 642,81 311,81 618,244 V 178 Q 3153,47 2828,-22 2503,-91 2169,-91 1331,-91 842,396 353,884 353,1716 q 0,859 464,1363 464,505 1252,505 706,0 1117,-455 411,-454 411,-1235 z m -575,169 q -6,471 -264,752 -258,282 -683,282 -481,0 -770,-272 -289,-272 -333,-766 z"
                 transform="scale(0.015625)" />
              <path
                 id="DejaVuSans-74"
                 d="M 1172,4494 V 3500 H 2356 V 3053 H 1172 V 1153 q 0,-428 117,-550 117,-122 477,-122 h 590 V 0 H 1766 Q 1100,0 847,248 594,497 594,1153 V 3053 H 172 v 447 h 422 v 994 z"
                 transform="scale(0.015625)" />
              <path
                 id="DejaVuSans-76"
                 d="M 191,3500 H 800 L 1894,563 2988,3500 h 609 L 2284,0 h -781 z"
                 transform="scale(0.015625)" />
              <path
                 id="DejaVuSans-64"
                 d="m 2906,2969 v 1894 h 575 V 0 H 2906 V 525 Q 2725,213 2448,61 2172,-91 1784,-91 1150,-91 751,415 353,922 353,1747 q 0,825 398,1331 399,506 1033,506 388,0 664,-152 277,-151 458,-463 z M 947,1747 q 0,-634 261,-995 261,-361 717,-361 456,0 718,361 263,361 263,995 0,634 -263,995 -262,361 -718,361 -456,0 -717,-361 -261,-361 -261,-995 z"
                 transform="scale(0.015625)" />
              <path
                 id="DejaVuSans-61"
                 d="m 2194,1759 q -697,0 -966,-159 -269,-159 -269,-544 0,-306 202,-486 202,-179 548,-179 479,0 768,339 289,339 289,901 v 128 z m 1147,238 V 0 H 2766 V 531 Q 2569,213 2275,61 1981,-91 1556,-91 q -537,0 -855,302 -317,302 -317,808 0,590 395,890 396,300 1180,300 h 807 v 57 q 0,397 -261,614 -261,217 -733,217 -300,0 -585,-72 -284,-72 -546,-216 v 532 q 315,122 612,182 297,61 578,61 760,0 1135,-394 375,-393 375,-1193 z"
                 transform="scale(0.015625)" />
              <path
                 id="DejaVuSans-20"
                 transform="scale(0.015625)"
                 d="" />
              <path
                 id="DejaVuSans-5b"
                 d="M 550,4863 H 1875 V 4416 H 1125 V -397 h 750 V -844 H 550 Z"
                 transform="scale(0.015625)" />
              <path
                 id="DejaVuSans-42"
                 d="M 1259,2228 V 519 h 1013 q 509,0 754,211 246,211 246,645 0,438 -246,645 -245,208 -754,208 z m 0,1919 V 2741 h 935 q 462,0 688,173 227,174 227,530 0,353 -227,528 -226,175 -688,175 z m -631,519 h 1613 q 722,0 1112,-300 391,-300 391,-853 0,-429 -200,-682 -200,-253 -588,-315 466,-100 724,-418 258,-317 258,-792 0,-625 -425,-966 Q 3088,0 2303,0 H 628 Z"
                 transform="scale(0.015625)" />
              <path
                 id="DejaVuSans-5d"
                 d="M 1947,4863 V -844 H 622 v 447 h 747 V 4416 H 622 v 447 z"
                 transform="scale(0.015625)" />
            </defs>
            <use
               xlink:href="#DejaVuSans-44"
               id="use26" />
            <use
               xlink:href="#DejaVuSans-69"
               transform="translate(77.001953)"
               id="use27" />
            <use
               xlink:href="#DejaVuSans-72"
               transform="translate(104.78516)"
               id="use28" />
            <use
               xlink:href="#DejaVuSans-65"
               transform="translate(143.64844)"
               id="use29" />
            <use
               xlink:href="#DejaVuSans-74"
               transform="translate(205.17187)"
               id="use30" />
            <use
               xlink:href="#DejaVuSans-69"
               transform="translate(244.38086)"
               id="use31" />
            <use
               xlink:href="#DejaVuSans-76"
               transform="translate(272.16406)"
               id="use32" />
            <use
               xlink:href="#DejaVuSans-69"
               transform="translate(331.34375)"
               id="use33" />
            <use
               xlink:href="#DejaVuSans-64"
               transform="translate(359.12695)"
               id="use34" />
            <use
               xlink:href="#DejaVuSans-61"
               transform="translate(422.60352)"
               id="use35" />
            <use
               xlink:href="#DejaVuSans-64"
               transform="translate(483.88281)"
               id="use36" />
            <use
               xlink:href="#DejaVuSans-65"
               transform="translate(547.35937)"
               id="use37" />
            <use
               xlink:href="#DejaVuSans-20"
               transform="translate(608.88281)"
               id="use38" />
            <use
               xlink:href="#DejaVuSans-5b"
               transform="translate(640.66992)"
               id="use39" />
            <use
               xlink:href="#DejaVuSans-64"
               transform="translate(679.68359)"
               id="use40" />
            <use
               xlink:href="#DejaVuSans-42"
               transform="translate(743.16016)"
               id="use41" />
            <use
               xlink:href="#DejaVuSans-5d"
               transform="translate(811.76367)"
               id="use42" />
          </g>
        </g>
      </g>
      <g
         id="matplotlib.axis_2">
        <g
           id="ytick_1">
          <g
             id="line2d_8">
            <path
               d="m 31.866406,206.784 c 0,-35.27511 14.02793,-69.14153 38.9712,-94.0848 C 95.780877,87.75593 129.6473,73.728 164.92241,73.728 c 35.27511,0 69.14153,14.02793 94.0848,38.9712 24.94327,24.94327 38.9712,58.80969 38.9712,94.0848"
               clip-path="url(#pdcd4977148)"
               style="fill:none;stroke:#b0b0b0;stroke-width:0.8;stroke-linecap:square"
               id="path42" />
          </g>
          <g
             id="text_9">
            <!-- 0 -->
            <g
               transform="matrix(0.1,0,0,-0.1,28.685156,221.38244)"
               id="g43">
              <use
                 xlink:href="#DejaVuSans-30"
                 id="use43" />
            </g>
          </g>
        </g>
        <g
           id="ytick_2">
          <g
             id="line2d_9">
            <path
               d="m 69.196494,206.784 c 0,-25.37835 10.092265,-49.74324 28.037471,-67.68844 17.945205,-17.94521 42.310085,-28.03747 67.688445,-28.03747 25.37835,0 49.74323,10.09226 67.68844,28.03747 17.9452,17.9452 28.03747,42.31009 28.03747,67.68844"
               clip-path="url(#pdcd4977148)"
               style="fill:none;stroke:#b0b0b0;stroke-width:0.8;stroke-linecap:square"
               id="path43" />
          </g>
          <g
             id="text_10">
            <!-- −10 -->
            <g
               transform="matrix(0.1,0,0,-0.1,58.64415,221.38244)"
               id="g46">
              <defs
                 id="defs43">
                <path
                   id="DejaVuSans-2212"
                   d="M 678,2272 H 4684 V 1741 H 678 Z"
                   transform="scale(0.015625)" />
                <path
                   id="DejaVuSans-31"
                   d="M 794,531 H 1825 V 4091 L 703,3866 v 575 l 1116,225 h 631 V 531 H 3481 V 0 H 794 Z"
                   transform="scale(0.015625)" />
              </defs>
              <use
                 xlink:href="#DejaVuSans-2212"
                 id="use44" />
              <use
                 xlink:href="#DejaVuSans-31"
                 transform="translate(83.789062)"
                 id="use45" />
              <use
                 xlink:href="#DejaVuSans-30"
                 transform="translate(147.41211)"
                 id="use46" />
            </g>
          </g>
        </g>
        <g
           id="ytick_3">
          <g
             id="line2d_10">
            <path
               d="m 106.52658,206.784 c 0,-15.4816 6.1566,-30.34494 17.10374,-41.29208 10.94714,-10.94715 25.81049,-17.10374 41.29209,-17.10374 15.48159,0 30.34494,6.15659 41.29208,17.10374 10.94714,10.94714 17.10374,25.81048 17.10374,41.29208"
               clip-path="url(#pdcd4977148)"
               style="fill:none;stroke:#b0b0b0;stroke-width:0.8;stroke-linecap:square"
               id="path46" />
          </g>
          <g
             id="text_11">
            <!-- −20 -->
            <g
               transform="matrix(0.1,0,0,-0.1,95.974238,221.38244)"
               id="g49">
              <defs
                 id="defs46">
                <path
                   id="DejaVuSans-32"
                   d="M 1228,531 H 3431 V 0 H 469 v 531 q 359,372 979,998 621,627 780,809 303,340 423,576 121,236 121,464 0,372 -261,606 -261,235 -680,235 -297,0 -627,-103 -329,-103 -704,-313 v 638 q 381,153 712,231 332,78 607,78 725,0 1156,-363 431,-362 431,-968 0,-288 -108,-546 -107,-257 -392,-607 -78,-91 -497,-524 Q 1991,1309 1228,531 Z"
                   transform="scale(0.015625)" />
              </defs>
              <use
                 xlink:href="#DejaVuSans-2212"
                 id="use47" />
              <use
                 xlink:href="#DejaVuSans-32"
                 transform="translate(83.789062)"
                 id="use48" />
              <use
                 xlink:href="#DejaVuSans-30"
                 transform="translate(147.41211)"
                 id="use49" />
            </g>
          </g>
        </g>
        <g
           id="ytick_4">
          <g
             id="line2d_11">
            <path
               d="m 143.85667,206.784 c 0,-5.58484 2.22093,-10.94665 6.17001,-14.89573 3.94908,-3.94907 9.31089,-6.17001 14.89573,-6.17001 5.58483,0 10.94664,2.22094 14.89572,6.17001 3.94908,3.94908 6.17001,9.31089 6.17001,14.89573"
               clip-path="url(#pdcd4977148)"
               style="fill:none;stroke:#b0b0b0;stroke-width:0.8;stroke-linecap:square"
               id="path49" />
          </g>
          <g
             id="text_12">
            <!-- −30 -->
            <g
               transform="matrix(0.1,0,0,-0.1,133.30433,221.38244)"
               id="g52">
              <use
                 xlink:href="#DejaVuSans-2212"
                 id="use50" />
              <use
                 xlink:href="#DejaVuSans-33"
                 transform="translate(83.789062)"
                 id="use51" />
              <use
                 xlink:href="#DejaVuSans-30"
                 transform="translate(147.41211)"
                 id="use52" />
            </g>
          </g>
        </g>
      </g>
      <g
         id="line2d_12">
        <path
           d="m 233.04415,206.784 -0.26444,-5.93675 -0.86639,-5.87556 -1.68591,-5.68611 -2.87193,-5.22536 -4.61887,-4.23543 -7.30988,-2.19948 -12.05054,2.23306 -21.25091,12.4907 11.81243,-14.58037 16.03109,-24.66891 5.7424,-18.84971 0.17381,-15.73589 -3.57723,-13.34846 -6.36097,-11.09535 -8.46769,-8.789676 -10.00734,-6.380573 -11.02212,-3.873214 -11.52725,-1.298917 -11.52726,1.298886 -11.02213,3.873187 -10.00734,6.380557 -8.4677,8.789675 -6.36098,11.095365 -3.5772,13.34851 0.17387,15.73599 5.74263,18.84997 16.0326,24.67035 11.8156,14.58276 -21.25491,-12.4942 -12.05105,-2.23347 -7.31001,2.19937 -4.61892,4.23537 -2.871952,5.22532 -1.685918,5.6861 -0.866401,5.87554 -0.264442,5.93672"
           clip-path="url(#pdcd4977148)"
           style="fill:none;stroke:#ffa500;stroke-width:2;stroke-linecap:square"
           id="path52" />
      </g>
      <g
         id="line2d_13">
        <path
           d="m 232.38863,206.784 -0.2654,-5.87931 -0.86825,-5.81691 -1.68666,-5.6256 -2.87276,-5.16177 -4.6348,-4.16046 -7.41345,-2.06463 -12.70205,2.785 -32.1692,21.85098 18.64346,-19.42441 20.16122,-28.53287 6.46566,-19.55451 0.47014,-16.04712 -3.41204,-13.55071 -6.26033,-11.249303 -8.40835,-8.91008 -9.97692,-6.46909 -11.01086,-3.927811 -11.52563,-1.317396 -11.52564,1.317396 -11.01086,3.927811 -9.97692,6.46909 -8.40835,8.91008 -6.26033,11.249303 -3.41204,13.55071 0.47014,16.04712 6.46566,19.55451 20.16122,28.53287 18.64346,19.42441 -32.1692,-21.85098 -12.70204,-2.785 -7.41346,2.06463 -4.6348,4.16046 -2.87276,5.16177 -1.686662,5.6256 -0.868241,5.81691 -0.265407,5.87931"
           clip-path="url(#pdcd4977148)"
           style="fill:none;stroke:#1f77b4;stroke-width:1.5;stroke-dasharray:5.55, 2.4;stroke-dashoffset:0;stroke-opacity:0.8"
           id="path53" />
      </g>
      <g
         id="patch_3">
        <path
           d="m 297.97841,206.784 c 0,-35.27511 -14.02793,-69.14153 -38.9712,-94.0848 -24.94327,-24.94327 -58.80969,-38.9712 -94.0848,-38.9712 -35.27511,0 -69.141533,14.02793 -94.084804,38.9712 -24.94327,24.94327 -38.9712,58.80969 -38.9712,94.0848"
           style="fill:none;stroke:#000000;stroke-width:0.8;stroke-linecap:square;stroke-linejoin:miter"
           id="path54" />
      </g>
      <g
         id="patch_4">
        <path
           d="M 164.92241,206.784 H 31.866406"
           style="fill:none;stroke:#000000;stroke-width:0.8;stroke-linecap:square;stroke-linejoin:miter"
           id="path55" />
      </g>
      <g
         id="patch_5">
        <path
           d="m 164.92241,206.784 h 133.056"
           style="fill:none;stroke:#000000;stroke-width:0.8;stroke-linecap:square;stroke-linejoin:miter"
           id="path56" />
      </g>
      <g
         id="legend_1">
        <g
           id="patch_6">
          <path
             d="m 179.68622,44.55625 h 111.29219 q 2,0 2,-2 V 14.2 q 0,-2 -2,-2 H 179.68622 q -2,0 -2,2 v 28.35625 q 0,2 2,2 z"
             style="opacity:0.8;fill:#ffffff;stroke:#cccccc;stroke-linejoin:miter"
             id="path57" />
        </g>
        <g
           id="line2d_14">
          <path
             d="m 181.68622,20.298437 h 10 10"
             style="fill:none;stroke:#ffa500;stroke-width:2;stroke-linecap:square"
             id="path58" />
        </g>
        <g
           id="text_13">
          <!-- Simulado -->
          <g
             transform="matrix(0.1,0,0,-0.1,209.68622,23.798437)"
             id="g65">
            <defs
               id="defs58">
              <path
                 id="DejaVuSans-53"
                 d="m 3425,4513 v -616 q -359,172 -678,256 -319,85 -616,85 -515,0 -795,-200 -280,-200 -280,-569 0,-310 186,-468 186,-157 705,-254 l 381,-78 q 706,-135 1042,-474 336,-339 336,-907 0,-679 -455,-1029 -454,-350 -1332,-350 -331,0 -705,75 -373,75 -773,222 v 650 q 384,-215 753,-325 369,-109 725,-109 540,0 834,212 294,213 294,607 0,343 -211,537 -211,194 -692,291 l -385,75 q -706,140 -1022,440 -315,300 -315,835 0,619 436,975 436,356 1201,356 329,0 669,-60 341,-59 697,-177 z"
                 transform="scale(0.015625)" />
              <path
                 id="DejaVuSans-6d"
                 d="m 3328,2828 q 216,388 516,572 300,184 706,184 547,0 844,-383 297,-382 297,-1088 V 0 h -578 v 2094 q 0,503 -179,746 -178,244 -543,244 -447,0 -707,-297 -259,-296 -259,-809 V 0 h -578 v 2094 q 0,506 -178,748 -178,242 -550,242 -441,0 -701,-298 -259,-298 -259,-808 V 0 H 581 v 3500 h 578 v -544 q 197,322 472,475 275,153 653,153 382,0 649,-194 267,-193 395,-562 z"
                 transform="scale(0.015625)" />
              <path
                 id="DejaVuSans-75"
                 d="m 544,1381 v 2119 h 575 V 1403 q 0,-497 193,-746 194,-248 582,-248 465,0 735,297 271,297 271,810 v 1984 h 575 V 0 H 2900 V 538 Q 2691,219 2414,64 2138,-91 1772,-91 1169,-91 856,284 544,659 544,1381 Z m 1447,2203 z"
                 transform="scale(0.015625)" />
              <path
                 id="DejaVuSans-6c"
                 d="m 603,4863 h 575 V 0 H 603 Z"
                 transform="scale(0.015625)" />
              <path
                 id="DejaVuSans-6f"
                 d="m 1959,3097 q -462,0 -731,-361 -269,-361 -269,-989 0,-628 267,-989 268,-361 733,-361 460,0 728,362 269,363 269,988 0,622 -269,986 -268,364 -728,364 z m 0,487 q 750,0 1178,-488 429,-487 429,-1349 Q 3566,888 3137,398 2709,-91 1959,-91 1206,-91 779,398 353,888 353,1747 q 0,862 426,1349 427,488 1180,488 z"
                 transform="scale(0.015625)" />
            </defs>
            <use
               xlink:href="#DejaVuSans-53"
               id="use58" />
            <use
               xlink:href="#DejaVuSans-69"
               transform="translate(63.476562)"
               id="use59" />
            <use
               xlink:href="#DejaVuSans-6d"
               transform="translate(91.259766)"
               id="use60" />
            <use
               xlink:href="#DejaVuSans-75"
               transform="translate(188.67187)"
               id="use61" />
            <use
               xlink:href="#DejaVuSans-6c"
               transform="translate(252.05078)"
               id="use62" />
            <use
               xlink:href="#DejaVuSans-61"
               transform="translate(279.83398)"
               id="use63" />
            <use
               xlink:href="#DejaVuSans-64"
               transform="translate(341.11328)"
               id="use64" />
            <use
               xlink:href="#DejaVuSans-6f"
               transform="translate(404.58984)"
               id="use65" />
          </g>
        </g>
        <g
           id="line2d_15">
          <path
             d="m 181.68622,34.976562 h 10 10"
             style="fill:none;stroke:#1f77b4;stroke-width:1.5;stroke-dasharray:5.55, 2.4;stroke-dashoffset:0;stroke-opacity:0.8"
             id="path65" />
        </g>
        <g
           id="text_14">
          <!-- Campo distante -->
          <g
             transform="matrix(0.1,0,0,-0.1,209.68622,38.476562)"
             id="g79">
            <defs
               id="defs65">
              <path
                 id="DejaVuSans-43"
                 d="m 4122,4306 v -665 q -319,297 -680,443 -361,147 -767,147 -800,0 -1225,-489 -425,-489 -425,-1414 0,-922 425,-1411 425,-489 1225,-489 406,0 767,147 361,147 680,444 V 359 Q 3791,134 3420,21 3050,-91 2638,-91 1578,-91 968,557 359,1206 359,2328 q 0,1125 609,1773 610,649 1670,649 418,0 788,-111 371,-111 696,-333 z"
                 transform="scale(0.015625)" />
              <path
                 id="DejaVuSans-70"
                 d="M 1159,525 V -1331 H 581 v 4831 h 578 v -531 q 182,312 458,463 277,152 661,152 638,0 1036,-506 399,-506 399,-1331 0,-825 -399,-1332 -398,-506 -1036,-506 -384,0 -661,152 -276,152 -458,464 z m 1957,1222 q 0,634 -261,995 -261,361 -717,361 -457,0 -718,-361 -261,-361 -261,-995 0,-634 261,-995 261,-361 718,-361 456,0 717,361 261,361 261,995 z"
                 transform="scale(0.015625)" />
              <path
                 id="DejaVuSans-73"
                 d="m 2834,3397 v -544 q -243,125 -506,187 -262,63 -544,63 -428,0 -642,-131 -214,-131 -214,-394 0,-200 153,-314 153,-114 616,-217 l 197,-44 q 612,-131 870,-370 258,-239 258,-667 0,-488 -386,-773 Q 2250,-91 1575,-91 1294,-91 989,-36 684,19 347,128 v 594 q 319,-166 628,-249 309,-82 613,-82 406,0 624,139 219,139 219,392 0,234 -158,359 -157,125 -692,241 l -200,47 q -534,112 -772,345 -237,233 -237,639 0,494 350,762 350,269 994,269 318,0 599,-47 282,-46 519,-140 z"
                 transform="scale(0.015625)" />
              <path
                 id="DejaVuSans-6e"
                 d="M 3513,2113 V 0 h -575 v 2094 q 0,497 -194,743 -194,247 -581,247 -466,0 -735,-297 -269,-296 -269,-809 V 0 H 581 v 3500 h 578 v -544 q 207,316 486,472 280,156 646,156 603,0 912,-373 310,-373 310,-1098 z"
                 transform="scale(0.015625)" />
            </defs>
            <use
               xlink:href="#DejaVuSans-43"
               id="use66" />
            <use
               xlink:href="#DejaVuSans-61"
               transform="translate(69.824219)"
               id="use67" />
            <use
               xlink:href="#DejaVuSans-6d"
               transform="translate(131.10352)"
               id="use68" />
            <use
               xlink:href="#DejaVuSans-70"
               transform="translate(228.51562)"
               id="use69" />
            <use
               xlink:href="#DejaVuSans-6f"
               transform="translate(291.99219)"
               id="use70" />
            <use
               xlink:href="#DejaVuSans-20"
               transform="translate(353.17383)"
               id="use71" />
            <use
               xlink:href="#DejaVuSans-64"
               transform="translate(384.96094)"
               id="use72" />
            <use
               xlink:href="#DejaVuSans-69"
               transform="translate(448.4375)"
               id="use73" />
            <use
               xlink:href="#DejaVuSans-73"
               transform="translate(476.2207)"
               id="use74" />
            <use
               xlink:href="#DejaVuSans-74"
               transform="translate(528.32031)"
               id="use75" />
            <use
               xlink:href="#DejaVuSans-61"
               transform="translate(567.5293)"
               id="use76" />
            <use
               xlink:href="#DejaVuSans-6e"
               transform="translate(628.80859)"
               id="use77" />
            <use
               xlink:href="#DejaVuSans-74"
               transform="translate(692.1875)"
               id="use78" />
            <use
               xlink:href="#DejaVuSans-65"
               transform="translate(731.39648)"
               id="use79" />
          </g>
        </g>
      </g>
    </g>
  </g>
  <defs
     id="defs79">
    <clipPath
       id="pdcd4977148">
      <path
         d="m 297.97841,206.784 c 0,-35.27511 -14.02793,-69.14153 -38.9712,-94.0848 -24.94327,-24.94327 -58.80969,-38.9712 -94.0848,-38.9712 -35.27511,0 -69.141533,14.02793 -94.084804,38.9712 -24.94327,24.94327 -38.9712,58.80969 -38.9712,94.0848 H 164.92241 c 0,0 0,0 0,0 0,0 0,0 0,0 0,0 0,0 0,0 0,0 0,0 0,0 z"
         id="path79" />
    </clipPath>
  </defs>
</svg>
